<svg id="Layer_1" data-name="Layer 1" xmlns="http://www.w3.org/2000/svg" xmlns:xlink="http://www.w3.org/1999/xlink" viewBox="0 0 600 183.2">
  <defs>
    <style>
      .cls-1 {
        fill: #fff;
      }
      .cls-2 {
        fill: url("#linear-gradient");
      }
    </style>
    <linearGradient id="linear-gradient" x1="72.96" y1="148.92" x2="72.96" y2="34.28" gradientUnits="userSpaceOnUse"><stop offset="0" stop-color="#007c56"/><stop offset="0" stop-color="#009c74"/><stop offset="1" stop-color="#00d49f"/></linearGradient>
  </defs><path
    class="cls-1"
    d="M163.35,126.56A25.72,25.72,0,0,0,177,130.89c7.27,0,12-4.07,12-11.25V117l-.18-.17a19.16,19.16,0,0,1-10.81,3.11c-11,0-20.33-8.39-20.33-21,0-12.28,8.57-22.31,22.06-22.31A23.71,23.71,0,0,1,190.52,79l9-1.56v42.13c0,12.89-8.82,20.5-22.14,20.5a32.36,32.36,0,0,1-14-3.11Zm25.7-38.66a18.39,18.39,0,0,0-8.74-2.25c-7.61,0-12,5.79-12,12.72,0,7.35,4.76,12.8,12,12.8a15.64,15.64,0,0,0,8.74-2.68Z"/><path class="cls-1" d="M213.7,56.93a6.49,6.49,0,1,1-6.58,6.49A6.53,6.53,0,0,1,213.7,56.93Zm-5.28,20.59h10.47v42.56H208.42Z"/><path
    class="cls-1"
    d="M230.82,126.56a25.69,25.69,0,0,0,13.67,4.33c7.26,0,12-4.07,12-11.25V117l-.17-.17a19.16,19.16,0,0,1-10.81,3.11c-11,0-20.33-8.39-20.33-21,0-12.28,8.56-22.31,22.06-22.31A23.66,23.66,0,0,1,258,79l9-1.56v42.13c0,12.89-8.82,20.5-22.15,20.5a32.31,32.31,0,0,1-14-3.11ZM256.51,87.9a18.35,18.35,0,0,0-8.73-2.25c-7.62,0-12,5.79-12,12.72,0,7.35,4.76,12.8,12,12.8a15.6,15.6,0,0,0,8.73-2.68Z"/><path
    class="cls-1"
    d="M295.43,86.43H289V77.52h6.4V70.25c0-5.71,1-10.46,4.16-13.49,2.85-2.77,7.09-3.72,11-3.72a20.86,20.86,0,0,1,6.84,1V62.9a28.46,28.46,0,0,0-5.89-.78c-4.67,0-5.62,3.11-5.62,7.18v8.22h10.38v8.91H305.9v33.65H295.43Zm34-29.5a6.49,6.49,0,1,1-6.57,6.49A6.53,6.53,0,0,1,329.43,56.93Zm-5.28,20.59h10.47v42.56H324.15Z"/><path class="cls-1" d="M343.44,77.52h10.38V82.1l.17.09a21,21,0,0,1,14-5.62c4.58,0,8.56,1.55,11.24,4.49,2.51,2.69,3.64,6.23,3.64,12.55v26.47H372.42V95.42c0-3.8-.52-5.88-1.73-7.26a6.94,6.94,0,0,0-5.62-2.34c-4.16,0-8.48,2.42-11.16,5.37v28.89H343.44Z"/><path
    class="cls-1"
    d="M415.84,117A20.44,20.44,0,0,1,403.21,121a16.61,16.61,0,0,1-9.86-2.86,11.73,11.73,0,0,1-4.76-9.77A12,12,0,0,1,394,98.11c3.2-2.17,7.53-3,11.94-3a35.48,35.48,0,0,1,8.22,1V93.61c0-2.6-.7-4.5-2.08-5.8-1.56-1.38-4-2.07-7.18-2.07a24.15,24.15,0,0,0-12.8,3.8V80a29.37,29.37,0,0,1,14.36-3.46c5.53,0,10.46,1.29,13.66,4,2.86,2.42,4.5,6,4.5,11.33v16.35c0,2.33.87,4,2.94,4a5.46,5.46,0,0,0,2.34-.61v8.22a12.63,12.63,0,0,1-5.19,1c-3.46,0-6.75-1.22-8.74-3.9Zm-1.64-14a27.4,27.4,0,0,0-6.58-.86c-4.32,0-8.56,1.38-8.56,5.53,0,3.46,3,5.1,6.75,5.1a15.1,15.1,0,0,0,8.39-2.59Z"/><path class="cls-1" d="M434.18,77.52h10.38V82.1l.17.09a21,21,0,0,1,14-5.62c4.59,0,8.57,1.55,11.25,4.49,2.51,2.69,3.63,6.23,3.63,12.55v26.47H463.15V95.42c0-3.8-.51-5.88-1.73-7.26a6.92,6.92,0,0,0-5.62-2.34c-4.15,0-8.48,2.42-11.16,5.37v28.89H434.18Z"/><path
    class="cls-1"
    d="M516.35,117.83A28.31,28.31,0,0,1,503,121c-13.67,0-23.53-9.34-23.53-22.06,0-13.32,10.73-22.4,24.05-22.4a27.55,27.55,0,0,1,12.11,2.76V89.54a22.26,22.26,0,0,0-11.94-3.89c-8.22,0-13.66,5.79-13.66,13.23,0,7.62,5.7,13,13.84,13a20.44,20.44,0,0,0,12.45-4.24Z"/><path
    class="cls-1"
    d="M530.8,101.65c1.29,7.1,6.92,10.73,14.1,10.73a25.33,25.33,0,0,0,14.53-4.93v9.6c-4,2.51-10,4-15.57,4-13.67,0-23.7-8.82-23.7-22.15,0-13.49,10.12-22.31,21.71-22.31,10.55,0,19.89,7.18,19.89,20.84a30.63,30.63,0,0,1-.26,4.24ZM552,94.39C551.21,88,546.54,85,541.78,85s-9.69,2.94-11,9.35Z"/><path
    class="cls-2"
    d="M121.73,72,109,59.25a17.22,17.22,0,0,0-24.33,0L76.2,67.73,54.37,89.55,75,110.19,96.83,88.36l4.26,4.26L74,119.73,44.83,90.58,92.58,42.83a29.19,29.19,0,0,0-41.28,0L24.19,70a29.18,29.18,0,0,0,0,41.27h0l29.15,29.15a29.19,29.19,0,0,0,41.28,0l27.11-27.11h0A29.19,29.19,0,0,0,121.73,72Z"/></svg>
